<svg width="120" height="38" viewBox="0 0 120 38" fill="none" xmlns="http://www.w3.org/2000/svg">
<path d="M27.3957 3L28.3243 2.62899L27.3235 0.124042L26.4496 2.67602L27.3957 3ZM33.3885 18L32.4599 18.371L32.4644 18.3823L32.4692 18.3935L33.3885 18ZM40.2374 34L39.3181 34.3935L40.4561 37.052L41.2034 34.2584L40.2374 34ZM44.518 18L44.518 17H43.7504L43.552 17.7416L44.518 18ZM119.707 18.7071C120.098 18.3166 120.098 17.6834 119.707 17.2929L113.343 10.9289C112.953 10.5384 112.319 10.5384 111.929 10.9289C111.538 11.3195 111.538 11.9526 111.929 12.3431L117.586 18L111.929 23.6569C111.538 24.0474 111.538 24.6805 111.929 25.0711C112.319 25.4616 112.953 25.4616 113.343 25.0711L119.707 18.7071ZM22.259 18V19H22.9736L23.2051 18.324L22.259 18ZM26.4671 3.37101L32.4599 18.371L34.3171 17.629L28.3243 2.62899L26.4671 3.37101ZM32.4692 18.3935L39.3181 34.3935L41.1567 33.6065L34.3078 17.6065L32.4692 18.3935ZM41.2034 34.2584L45.484 18.2584L43.552 17.7416L39.2714 33.7416L41.2034 34.2584ZM44.518 19L119 19V17L44.518 17L44.518 19ZM0 19L22.259 19V17L0 17L0 19ZM23.2051 18.324L28.3417 3.32398L26.4496 2.67602L21.3129 17.676L23.2051 18.324Z" fill="white"/>
</svg>
