<svg width="32" height="40" viewBox="0 0 32 40" fill="none" xmlns="http://www.w3.org/2000/svg">
<path d="M26.9062 39.375H4.59375C3.37584 39.3736 2.20821 38.8892 1.34701 38.028C0.485819 37.1668 0.00138952 35.9992 0 34.7812V4.59375C0.00138952 3.37584 0.485819 2.20821 1.34701 1.34701C2.20821 0.485819 3.37584 0.00138952 4.59375 0H26.9062C28.1242 0.00138952 29.2918 0.485819 30.153 1.34701C31.0142 2.20821 31.4986 3.37584 31.5 4.59375V34.7812C31.4986 35.9992 31.0142 37.1668 30.153 38.028C29.2918 38.8892 28.1242 39.3736 26.9062 39.375ZM4.59375 1.3125C3.72383 1.31354 2.88983 1.65958 2.27471 2.27471C1.65958 2.88983 1.31354 3.72383 1.3125 4.59375V34.7812C1.31354 35.6512 1.65958 36.4852 2.27471 37.1003C2.88983 37.7154 3.72383 38.0615 4.59375 38.0625H26.9062C27.7762 38.0615 28.6102 37.7154 29.2253 37.1003C29.8404 36.4852 30.1865 35.6512 30.1875 34.7812V4.59375C30.1865 3.72383 29.8404 2.88983 29.2253 2.27471C28.6102 1.65958 27.7762 1.31354 26.9062 1.3125H4.59375Z" fill="#2B38F5"/>
<path d="M17.7188 36.75H13.7812C13.2591 36.75 12.7583 36.5426 12.3891 36.1734C12.0199 35.8042 11.8125 35.3034 11.8125 34.7812V32.1562C11.8125 31.6341 12.0199 31.1333 12.3891 30.7641C12.7583 30.3949 13.2591 30.1875 13.7812 30.1875H17.7188C18.2409 30.1875 18.7417 30.3949 19.1109 30.7641C19.4801 31.1333 19.6875 31.6341 19.6875 32.1562V34.7812C19.6875 35.3034 19.4801 35.8042 19.1109 36.1734C18.7417 36.5426 18.2409 36.75 17.7188 36.75ZM13.7812 31.5C13.6072 31.5 13.4403 31.5691 13.3172 31.6922C13.1941 31.8153 13.125 31.9822 13.125 32.1562V34.7812C13.125 34.9553 13.1941 35.1222 13.3172 35.2453C13.4403 35.3684 13.6072 35.4375 13.7812 35.4375H17.7188C17.8928 35.4375 18.0597 35.3684 18.1828 35.2453C18.3059 35.1222 18.375 34.9553 18.375 34.7812V32.1562C18.375 31.9822 18.3059 31.8153 18.1828 31.6922C18.0597 31.5691 17.8928 31.5 17.7188 31.5H13.7812Z" fill="#2B38F5"/>
<path d="M8.53125 36.75H4.59375C4.07161 36.75 3.57085 36.5426 3.20163 36.1734C2.83242 35.8042 2.625 35.3034 2.625 34.7812V32.1562C2.625 31.6341 2.83242 31.1333 3.20163 30.7641C3.57085 30.3949 4.07161 30.1875 4.59375 30.1875H8.53125C9.05339 30.1875 9.55415 30.3949 9.92337 30.7641C10.2926 31.1333 10.5 31.6341 10.5 32.1562V34.7812C10.5 35.3034 10.2926 35.8042 9.92337 36.1734C9.55415 36.5426 9.05339 36.75 8.53125 36.75ZM4.59375 31.5C4.4197 31.5 4.25278 31.5691 4.12971 31.6922C4.00664 31.8153 3.9375 31.9822 3.9375 32.1562V34.7812C3.9375 34.9553 4.00664 35.1222 4.12971 35.2453C4.25278 35.3684 4.4197 35.4375 4.59375 35.4375H8.53125C8.7053 35.4375 8.87222 35.3684 8.99529 35.2453C9.11836 35.1222 9.1875 34.9553 9.1875 34.7812V32.1562C9.1875 31.9822 9.11836 31.8153 8.99529 31.6922C8.87222 31.5691 8.7053 31.5 8.53125 31.5H4.59375Z" fill="#2B38F5"/>
<path d="M26.9062 36.75H22.9688C22.4466 36.75 21.9458 36.5426 21.5766 36.1734C21.2074 35.8042 21 35.3034 21 34.7812V24.2812C21 23.7591 21.2074 23.2583 21.5766 22.8891C21.9458 22.5199 22.4466 22.3125 22.9688 22.3125H26.9062C27.4284 22.3125 27.9292 22.5199 28.2984 22.8891C28.6676 23.2583 28.875 23.7591 28.875 24.2812V34.7812C28.875 35.3034 28.6676 35.8042 28.2984 36.1734C27.9292 36.5426 27.4284 36.75 26.9062 36.75ZM22.9688 23.625C22.7947 23.625 22.6278 23.6941 22.5047 23.8172C22.3816 23.9403 22.3125 24.1072 22.3125 24.2812V34.7812C22.3125 34.9553 22.3816 35.1222 22.5047 35.2453C22.6278 35.3684 22.7947 35.4375 22.9688 35.4375H26.9062C27.0803 35.4375 27.2472 35.3684 27.3703 35.2453C27.4934 35.1222 27.5625 34.9553 27.5625 34.7812V24.2812C27.5625 24.1072 27.4934 23.9403 27.3703 23.8172C27.2472 23.6941 27.0803 23.625 26.9062 23.625H22.9688Z" fill="#2B38F5"/>
<path d="M17.7188 28.875H13.7812C13.2591 28.875 12.7583 28.6676 12.3891 28.2984C12.0199 27.9292 11.8125 27.4284 11.8125 26.9062V24.2812C11.8125 23.7591 12.0199 23.2583 12.3891 22.8891C12.7583 22.5199 13.2591 22.3125 13.7812 22.3125H17.7188C18.2409 22.3125 18.7417 22.5199 19.1109 22.8891C19.4801 23.2583 19.6875 23.7591 19.6875 24.2812V26.9062C19.6875 27.4284 19.4801 27.9292 19.1109 28.2984C18.7417 28.6676 18.2409 28.875 17.7188 28.875ZM13.7812 23.625C13.6072 23.625 13.4403 23.6941 13.3172 23.8172C13.1941 23.9403 13.125 24.1072 13.125 24.2812V26.9062C13.125 27.0803 13.1941 27.2472 13.3172 27.3703C13.4403 27.4934 13.6072 27.5625 13.7812 27.5625H17.7188C17.8928 27.5625 18.0597 27.4934 18.1828 27.3703C18.3059 27.2472 18.375 27.0803 18.375 26.9062V24.2812C18.375 24.1072 18.3059 23.9403 18.1828 23.8172C18.0597 23.6941 17.8928 23.625 17.7188 23.625H13.7812Z" fill="#2B38F5"/>
<path d="M8.53125 28.875H4.59375C4.07161 28.875 3.57085 28.6676 3.20163 28.2984C2.83242 27.9292 2.625 27.4284 2.625 26.9062V24.2812C2.625 23.7591 2.83242 23.2583 3.20163 22.8891C3.57085 22.5199 4.07161 22.3125 4.59375 22.3125H8.53125C9.05339 22.3125 9.55415 22.5199 9.92337 22.8891C10.2926 23.2583 10.5 23.7591 10.5 24.2812V26.9062C10.5 27.4284 10.2926 27.9292 9.92337 28.2984C9.55415 28.6676 9.05339 28.875 8.53125 28.875ZM4.59375 23.625C4.4197 23.625 4.25278 23.6941 4.12971 23.8172C4.00664 23.9403 3.9375 24.1072 3.9375 24.2812V26.9062C3.9375 27.0803 4.00664 27.2472 4.12971 27.3703C4.25278 27.4934 4.4197 27.5625 4.59375 27.5625H8.53125C8.7053 27.5625 8.87222 27.4934 8.99529 27.3703C9.11836 27.2472 9.1875 27.0803 9.1875 26.9062V24.2812C9.1875 24.1072 9.11836 23.9403 8.99529 23.8172C8.87222 23.6941 8.7053 23.625 8.53125 23.625H4.59375Z" fill="#2B38F5"/>
<path d="M17.7188 21H13.7812C13.2591 21 12.7583 20.7926 12.3891 20.4234C12.0199 20.0542 11.8125 19.5534 11.8125 19.0312V16.4062C11.8125 15.8841 12.0199 15.3833 12.3891 15.0141C12.7583 14.6449 13.2591 14.4375 13.7812 14.4375H17.7188C18.2409 14.4375 18.7417 14.6449 19.1109 15.0141C19.4801 15.3833 19.6875 15.8841 19.6875 16.4062V19.0312C19.6875 19.5534 19.4801 20.0542 19.1109 20.4234C18.7417 20.7926 18.2409 21 17.7188 21ZM13.7812 15.75C13.6072 15.75 13.4403 15.8191 13.3172 15.9422C13.1941 16.0653 13.125 16.2322 13.125 16.4062V19.0312C13.125 19.2053 13.1941 19.3722 13.3172 19.4953C13.4403 19.6184 13.6072 19.6875 13.7812 19.6875H17.7188C17.8928 19.6875 18.0597 19.6184 18.1828 19.4953C18.3059 19.3722 18.375 19.2053 18.375 19.0312V16.4062C18.375 16.2322 18.3059 16.0653 18.1828 15.9422C18.0597 15.8191 17.8928 15.75 17.7188 15.75H13.7812Z" fill="#2B38F5"/>
<path d="M8.53125 21H4.59375C4.07161 21 3.57085 20.7926 3.20163 20.4234C2.83242 20.0542 2.625 19.5534 2.625 19.0312V16.4062C2.625 15.8841 2.83242 15.3833 3.20163 15.0141C3.57085 14.6449 4.07161 14.4375 4.59375 14.4375H8.53125C9.05339 14.4375 9.55415 14.6449 9.92337 15.0141C10.2926 15.3833 10.5 15.8841 10.5 16.4062V19.0312C10.5 19.5534 10.2926 20.0542 9.92337 20.4234C9.55415 20.7926 9.05339 21 8.53125 21ZM4.59375 15.75C4.4197 15.75 4.25278 15.8191 4.12971 15.9422C4.00664 16.0653 3.9375 16.2322 3.9375 16.4062V19.0312C3.9375 19.2053 4.00664 19.3722 4.12971 19.4953C4.25278 19.6184 4.4197 19.6875 4.59375 19.6875H8.53125C8.7053 19.6875 8.87222 19.6184 8.99529 19.4953C9.11836 19.3722 9.1875 19.2053 9.1875 19.0312V16.4062C9.1875 16.2322 9.11836 16.0653 8.99529 15.9422C8.87222 15.8191 8.7053 15.75 8.53125 15.75H4.59375Z" fill="#2B38F5"/>
<path d="M26.9062 21H22.9688C22.4466 21 21.9458 20.7926 21.5766 20.4234C21.2074 20.0542 21 19.5534 21 19.0312V16.4062C21 15.8841 21.2074 15.3833 21.5766 15.0141C21.9458 14.6449 22.4466 14.4375 22.9688 14.4375H26.9062C27.4284 14.4375 27.9292 14.6449 28.2984 15.0141C28.6676 15.3833 28.875 15.8841 28.875 16.4062V19.0312C28.875 19.5534 28.6676 20.0542 28.2984 20.4234C27.9292 20.7926 27.4284 21 26.9062 21ZM22.9688 15.75C22.7947 15.75 22.6278 15.8191 22.5047 15.9422C22.3816 16.0653 22.3125 16.2322 22.3125 16.4062V19.0312C22.3125 19.2053 22.3816 19.3722 22.5047 19.4953C22.6278 19.6184 22.7947 19.6875 22.9688 19.6875H26.9062C27.0803 19.6875 27.2472 19.6184 27.3703 19.4953C27.4934 19.3722 27.5625 19.2053 27.5625 19.0312V16.4062C27.5625 16.2322 27.4934 16.0653 27.3703 15.9422C27.2472 15.8191 27.0803 15.75 26.9062 15.75H22.9688Z" fill="#2B38F5"/>
<path d="M26.9062 11.8125H4.59375C4.07161 11.8125 3.57085 11.6051 3.20163 11.2359C2.83242 10.8667 2.625 10.3659 2.625 9.84375V4.59375C2.625 4.07161 2.83242 3.57085 3.20163 3.20163C3.57085 2.83242 4.07161 2.625 4.59375 2.625H26.9062C27.4284 2.625 27.9292 2.83242 28.2984 3.20163C28.6676 3.57085 28.875 4.07161 28.875 4.59375V9.84375C28.875 10.3659 28.6676 10.8667 28.2984 11.2359C27.9292 11.6051 27.4284 11.8125 26.9062 11.8125ZM4.59375 3.9375C4.4197 3.9375 4.25278 4.00664 4.12971 4.12971C4.00664 4.25278 3.9375 4.4197 3.9375 4.59375V9.84375C3.9375 10.0178 4.00664 10.1847 4.12971 10.3078C4.25278 10.4309 4.4197 10.5 4.59375 10.5H26.9062C27.0803 10.5 27.2472 10.4309 27.3703 10.3078C27.4934 10.1847 27.5625 10.0178 27.5625 9.84375V4.59375C27.5625 4.4197 27.4934 4.25278 27.3703 4.12971C27.2472 4.00664 27.0803 3.9375 26.9062 3.9375H4.59375Z" fill="#2B38F5"/>
</svg>
