<svg width="97" height="114" viewBox="0 0 97 114" fill="none" xmlns="http://www.w3.org/2000/svg">
<path d="M11.7174 95.8788H11.7725L51.8941 95.6791L51.8798 92.7589L11.7582 92.9585C7.09359 92.9813 3.29399 89.2178 3.27118 84.5532L2.9204 11.5718C2.89854 6.90715 6.66201 3.10755 11.3267 3.08474L45.1029 2.92408L45.1694 16.6367C45.1989 22.8926 50.278 27.948 56.534 27.949H56.5901L70.3027 27.8834L70.4928 73.9253L73.4131 73.913L73.2182 26.775L73.2163 26.3557C73.2144 25.9679 73.0585 25.5971 72.7828 25.3243L47.6353 0.468652C47.3958 0.2329 47.0821 0.0865058 46.7465 0.0551354L46.2236 0.0066543C46.1752 0.00190122 46.1295 0.00190122 46.0782 0L11.3115 0.167308C5.03551 0.197727 -0.0283984 5.31012 0.000119865 11.5861L0.350896 84.5674C0.38797 90.8206 5.46424 95.8721 11.7174 95.8788ZM56.5758 25.0277C51.9112 25.0496 48.1116 21.2861 48.0897 16.6215L48.0327 4.9679L68.2712 24.9716L56.5758 25.0277Z" fill="#60C4FA"/>
<path d="M35.2802 53.9072C34.4741 53.9072 33.8201 54.5612 33.8201 55.3674C33.8201 56.1735 34.4741 56.8275 35.2802 56.8275H40.2319C41.038 56.8275 41.6921 56.1735 41.6921 55.3674C41.6921 54.5612 41.038 53.9072 40.2319 53.9072H35.2802Z" fill="#60C4FA"/>
<path d="M58.7622 42.9836C58.7622 42.1775 58.1091 41.5234 57.302 41.5234H16.189C15.3829 41.5234 14.7289 42.1775 14.7289 42.9836C14.7289 43.7906 15.3829 44.4437 16.189 44.4437H57.302C58.1091 44.4437 58.7622 43.7906 58.7622 42.9836Z" fill="#60C4FA"/>
<path d="M16.189 53.9072C15.3829 53.9072 14.7289 54.5612 14.7289 55.3674C14.7289 56.1735 15.3829 56.8275 16.189 56.8275H29.0042C29.8103 56.8275 30.4644 56.1735 30.4644 55.3674C30.4644 54.5612 29.8103 53.9072 29.0042 53.9072H16.189Z" fill="#60C4FA"/>
<path d="M45.1602 114C45.317 114 45.4729 113.975 45.6222 113.925L62.9309 108.156C62.9405 108.152 62.95 108.147 62.9604 108.144C62.9994 108.129 63.0384 108.114 63.0764 108.096C63.0926 108.088 63.1087 108.082 63.1249 108.073C63.1657 108.053 63.2047 108.03 63.2437 108.007C63.2523 108.001 63.2627 107.995 63.2722 107.99C63.3188 107.959 63.3625 107.926 63.4053 107.89C63.4167 107.88 63.4272 107.87 63.4386 107.859C63.4595 107.841 63.4814 107.823 63.5013 107.803L95.8098 75.4929C96.3802 74.9226 96.3802 73.9986 95.8098 73.4282L84.2703 61.8897C83.7009 61.3193 82.7759 61.3193 82.2056 61.8897L49.8971 94.1991C49.8885 94.2067 49.8838 94.2162 49.8762 94.2238C49.8182 94.2827 49.7659 94.3474 49.7193 94.4158C49.7155 94.4206 49.7108 94.4263 49.7079 94.431C49.6632 94.5004 49.6243 94.5736 49.5919 94.6506C49.5824 94.6715 49.5739 94.6934 49.5663 94.7153C49.5577 94.7371 49.5501 94.7504 49.5435 94.7685L43.7742 112.077C43.6259 112.523 43.7 113.013 43.9748 113.393C44.2495 113.774 44.6906 114 45.1602 113.999V114ZM83.2379 64.9877L92.7127 74.4625L88.4302 78.7431L78.9564 69.2693L83.2379 64.9877ZM76.8917 71.334L86.3655 80.8078L62.468 104.705L57.732 99.9684L52.9942 95.2315L76.8917 71.334ZM51.5673 97.935L55.6664 102.034L59.7645 106.131L47.4683 110.23L51.5673 97.935Z" fill="#60C4FA"/>
</svg>
