<svg width="120" height="28" viewBox="0 0 120 28" fill="none" xmlns="http://www.w3.org/2000/svg">
<path d="M10.4215 27.0199L0 1.24963H5.58494L11.1283 14.9678L9.72861 15.5371L4.57328 2.76308H2.24506L10.4354 23.0072L17.8358 4.70696L19.9838 4.59588H47.6175C51.1237 4.59588 53.9647 7.17845 53.9647 10.3442C53.9647 13.5099 51.1237 16.0925 47.6175 16.0925H46.5088L39.053 9.4278V22.4795H23.3376L23.4346 14.4263H30.4192V12.6213H20.7599V24.2707H41.2565V18.3557H45.5249L52.7174 24.7705L63.2221 24.6456V5.304H75.7501L75.9025 24.7983L86.7814 24.7844L89.5531 17.4393L95.2212 17.4255L98.5195 24.7844L102.053 24.7983C102.15 24.7983 102.234 24.7983 102.317 24.7983H111.158C114.817 24.7983 117.783 22.1879 117.783 18.9667C117.783 15.7593 114.803 13.135 111.158 13.135H107.347C104.908 13.135 102.926 11.33 102.926 9.10844C102.926 6.88687 104.908 5.08184 107.347 5.08184H111.158C113.597 5.08184 115.579 6.88687 115.579 9.10844V9.89988L117.783 9.59441V8.59471C117.783 5.38731 114.803 2.76308 111.158 2.76308H107.347C103.689 2.76308 100.723 5.37343 100.723 8.59471C100.723 11.8021 103.703 14.4263 107.347 14.4263H111.158C113.597 14.4263 115.579 16.2314 115.579 18.4529C115.579 20.6745 113.597 22.4795 111.158 22.4795L100.751 22.6045C100.085 22.6045 99.8499 21.8964 99.6836 21.3549L92.6573 4.01271L84.7165 23.6459H78.1199V5.05408H85.451L85.5203 2.79085H61.0325L61.1156 23.1877H54.7823L48.546 17.9531L49.9734 17.5921C53.6182 16.6618 56.1681 13.6904 56.1681 10.3442C56.1681 6.17875 52.3294 2.80473 47.6175 2.80473L16.2975 2.77696L14.9117 6.20652L13.512 5.63724L15.2858 1.26352L20.0393 1.29129H47.6314C53.1747 1.29129 57.6926 5.34566 57.6926 10.3442C57.6926 13.9542 55.2812 17.1894 51.6919 18.6195L55.3366 21.6742H59.6189L59.508 1.2774H87.0724L86.92 6.56752H79.6304V22.1463H83.7048L92.6712 0L101.125 20.8828C101.153 20.9522 101.166 21.0216 101.194 21.091L111.158 20.98C112.78 20.98 114.082 19.8553 114.082 18.4668C114.082 17.0783 112.78 15.9537 111.172 15.9537H107.361C102.871 15.9537 99.2262 12.663 99.2262 8.62247C99.2262 4.58199 102.871 1.29129 107.361 1.29129H111.172C115.662 1.29129 119.307 4.58199 119.307 8.62247V10.9412L114.082 11.6494V9.13621C114.082 7.74773 112.78 6.62306 111.172 6.62306H107.361C105.754 6.62306 104.451 7.74773 104.451 9.13621C104.451 10.5247 105.754 11.6494 107.361 11.6494H111.172C115.662 11.6494 119.307 14.9401 119.307 18.9806C119.307 23.021 115.662 26.3117 111.172 26.3117H102.331C102.234 26.3117 102.137 26.3117 102.039 26.3117L97.5632 26.2979L94.2649 18.9389H90.6063L87.8346 26.284L74.4197 26.2979L74.2534 6.81745H64.7327V26.1729L52.1631 26.3117L44.9567 19.897H42.7671V25.8119H19.2632V11.1217H31.9298V15.9398H24.9313L24.862 20.9661H37.5424V6.09544H20.0115L18.8613 6.15098L10.4215 27.0199ZM47.077 14.5652H47.6175C50.2922 14.5652 52.4541 12.663 52.4541 10.3303C52.4541 7.99766 50.2783 6.09544 47.6175 6.09544H37.584L47.077 14.5652Z" fill="#18183D"/>
</svg>
