<svg width="40" height="40" viewBox="0 0 40 40" fill="none" xmlns="http://www.w3.org/2000/svg">
<path d="M38.8915 6.89798L31.9352 5.00076L29.4448 0.640633C29.4018 0.565719 29.3444 0.500027 29.276 0.447322C29.2076 0.394618 29.1294 0.355939 29.046 0.333503C28.9626 0.311067 28.8756 0.305315 28.79 0.316577C28.7043 0.32784 28.6218 0.355895 28.547 0.399133L19.6765 5.46932L12.4689 1.62501H22.3126C22.4867 1.62501 22.6536 1.55587 22.7767 1.4328C22.8997 1.30973 22.9689 1.14281 22.9689 0.968758C22.9689 0.79471 22.8997 0.62779 22.7767 0.50472C22.6536 0.381649 22.4867 0.312508 22.3126 0.312508H9.84388C9.77012 0.317077 9.69707 0.329618 9.626 0.349915C9.54037 0.380055 9.46191 0.427637 9.39561 0.489651C9.3293 0.551665 9.27658 0.626763 9.24079 0.710196L7.39672 5.01257L0.483787 6.89798C0.31583 6.94375 0.172937 7.05437 0.0865411 7.2055C0.000145461 7.35663 -0.0226751 7.53589 0.0230996 7.70385C0.0688743 7.87181 0.179495 8.0147 0.330626 8.1011C0.481756 8.18749 0.661018 8.21031 0.828974 8.16454L7.62313 6.31129L13.9172 14.4941C13.9786 14.5737 14.0574 14.6383 14.1476 14.6826C14.2379 14.727 14.3371 14.7501 14.4376 14.75H14.4599C14.5644 14.7466 14.6665 14.7184 14.7578 14.6676C14.8491 14.6168 14.927 14.5449 14.9849 14.458L16.0349 12.8863L13.1343 34.3496C13.1188 34.4635 13.1336 34.5794 13.177 34.6858C13.2204 34.7922 13.291 34.8854 13.3817 34.9559L19.288 39.5497C19.4032 39.6393 19.545 39.688 19.6909 39.688C19.8369 39.688 19.9786 39.6393 20.0938 39.5497L26.0001 34.9559C26.0908 34.8854 26.1614 34.7922 26.2048 34.6858C26.2483 34.5794 26.263 34.4635 26.2475 34.3496L23.3436 12.8863L24.3936 14.458C24.4515 14.5449 24.5294 14.6168 24.6207 14.6676C24.712 14.7184 24.8142 14.7466 24.9186 14.75H24.9376C25.0382 14.7501 25.1374 14.727 25.2276 14.6826C25.3179 14.6383 25.3967 14.5737 25.458 14.4941L31.7521 6.31129L38.5463 8.16454C38.7142 8.21031 38.8935 8.18749 39.0446 8.1011C39.1958 8.0147 39.3064 7.87181 39.3522 7.70385C39.3979 7.53589 39.3751 7.35663 39.2887 7.2055C39.2023 7.05437 39.0594 6.94375 38.8915 6.89798ZM14.3996 12.9676L8.62982 5.46735L10.1654 1.88423L18.74 6.45698L14.3996 12.9676ZM19.6876 38.1998L14.4823 34.1514L17.1466 14.4344L18.6304 15.0132C19.3499 15.2937 20.1452 15.3118 20.8768 15.0644L22.2503 14.5984L24.893 34.1547L19.6876 38.1998ZM22.0718 13.2728L20.4561 13.8208C20.0168 13.97 19.539 13.9593 19.1068 13.7906L17.3251 13.0956L17.69 10.3938L19.6876 7.40001L21.6826 10.3919L22.0718 13.2728ZM24.9757 12.9676L20.6241 6.43991L28.6303 1.86388L30.7126 5.5087L24.9757 12.9676Z" fill="#2B38F5"/>
<path d="M33.4152 38.375C33.3121 38.375 33.2105 38.3507 33.1186 38.3041L29.2349 36.3354C29.0872 36.2528 28.9772 36.1163 28.9277 35.9546C28.8783 35.7928 28.8932 35.6181 28.9694 35.4671C29.0456 35.316 29.1772 35.2002 29.3367 35.1439C29.4962 35.0875 29.6713 35.095 29.8255 35.1646L33.4165 36.9851L36.7503 35.3418V27.875C36.7503 27.701 36.8194 27.534 36.9425 27.411C37.0655 27.2879 37.2325 27.2188 37.4065 27.2188C37.5806 27.2188 37.7475 27.2879 37.8705 27.411C37.9936 27.534 38.0628 27.701 38.0628 27.875V35.75C38.0631 35.8729 38.029 35.9933 37.9643 36.0978C37.8995 36.2022 37.8068 36.2863 37.6966 36.3406L33.7053 38.3094C33.6149 38.3532 33.5156 38.3756 33.4152 38.375Z" fill="#2B38F5"/>
<path d="M38.719 26.5625H28.8752C28.7012 26.5625 28.5343 26.4934 28.4112 26.3703C28.2881 26.2472 28.219 26.0803 28.219 25.9063C28.219 25.7322 28.2881 25.5653 28.4112 25.4422C28.5343 25.3191 28.7012 25.25 28.8752 25.25H38.0627V23.9375H27.5627C27.3887 23.9375 27.2218 23.8684 27.0987 23.7453C26.9756 23.6222 26.9065 23.4553 26.9065 23.2813C26.9065 23.1072 26.9756 22.9403 27.0987 22.8172C27.2218 22.6941 27.3887 22.625 27.5627 22.625H38.719C38.893 22.625 39.06 22.6941 39.183 22.8172C39.3061 22.9403 39.3752 23.1072 39.3752 23.2813V25.9063C39.3752 26.0803 39.3061 26.2472 39.183 26.3703C39.06 26.4934 38.893 26.5625 38.719 26.5625Z" fill="#2B38F5"/>
<path d="M11.8127 38.375H0.656494C0.482446 38.375 0.315526 38.3059 0.192455 38.1828C0.0693845 38.0597 0.000244141 37.8928 0.000244141 37.7188V11.4688C0.000244141 11.2947 0.0693845 11.1278 0.192455 11.0047C0.315526 10.8816 0.482446 10.8125 0.656494 10.8125C0.830542 10.8125 0.997462 10.8816 1.12053 11.0047C1.2436 11.1278 1.31274 11.2947 1.31274 11.4688V37.0625H11.8127C11.9868 37.0625 12.1537 37.1316 12.2768 37.2547C12.3999 37.3778 12.469 37.5447 12.469 37.7188C12.469 37.8928 12.3999 38.0597 12.2768 38.1828C12.1537 38.3059 11.9868 38.375 11.8127 38.375Z" fill="#2B38F5"/>
</svg>
