<svg width="50" height="50" viewBox="0 0 50 50" fill="none" xmlns="http://www.w3.org/2000/svg">
<path d="M25.0001 -6.10352e-05C11.2061 -6.10352e-05 7.48158e-05 11.206 7.48158e-05 24.9999C-0.00480768 25.4492 0.229568 25.8691 0.620193 26.0986C1.01082 26.3232 1.48933 26.3232 1.87996 26.0986C2.27058 25.8691 2.50496 25.4492 2.50007 24.9999C2.50007 12.5585 12.5587 2.49994 25.0001 2.49994C32.8077 2.49994 39.6583 6.47455 43.6964 12.4999H35.0001C34.5509 12.4951 34.1309 12.7294 33.9014 13.1201C33.6768 13.5107 33.6768 13.9892 33.9014 14.3798C34.1309 14.7704 34.5509 15.0048 35.0001 14.9999H47.5001V2.49994C47.505 2.16303 47.3731 1.83588 47.1339 1.59662C46.8946 1.35736 46.5675 1.22553 46.2305 1.23041C45.5421 1.24506 44.9903 1.81146 45.0001 2.49994V10.0146C40.4346 3.93549 33.1739 -6.10352e-05 25.0001 -6.10352e-05ZM48.7305 23.7304C48.0421 23.7451 47.4903 24.3115 47.5001 24.9999C47.5001 37.4413 37.4415 47.4999 25.0001 47.4999C17.1925 47.4999 10.337 43.5253 6.30379 37.4999H15.0001C15.4493 37.5097 15.8692 37.2704 16.0987 36.8847C16.3233 36.4941 16.3233 36.0107 16.0987 35.6201C15.8692 35.2343 15.4493 34.9951 15.0001 34.9999H4.30672C4.14558 34.9706 3.98445 34.9706 3.82332 34.9999H2.50007V47.4999C2.49519 47.9492 2.72957 48.3691 3.12019 48.5986C3.51082 48.8232 3.98933 48.8232 4.37996 48.5986C4.77058 48.3691 5.00496 47.9492 5.00008 47.4999V39.9804C9.56062 46.0595 16.8262 49.9999 25.0001 49.9999C38.794 49.9999 50.0001 38.7939 50.0001 24.9999C50.005 24.663 49.8731 24.3359 49.6339 24.0966C49.3946 23.8574 49.0675 23.7255 48.7305 23.7304Z" fill="#2B38F5"/>
</svg>
