<svg width="22" height="22" viewBox="0 0 22 22" fill="none" xmlns="http://www.w3.org/2000/svg">
<path d="M21.0245 16.4993L21.3781 16.1458L21.0246 16.4993C21.5817 17.0565 21.616 18.0633 21.0121 18.7652L18.9412 20.836L19.2948 21.1896L18.9412 20.8361C18.5122 21.265 17.8804 21.4984 17.0375 21.5C16.1904 21.5015 15.1643 21.2669 14.0159 20.7956C11.7209 19.8537 9.03336 18.0061 6.49049 15.4633C3.94925 12.922 2.12889 10.2353 1.20023 7.94016C0.735576 6.7918 0.503152 5.76366 0.500032 4.91351C0.49693 4.06836 0.718827 3.43537 1.1225 3.00774L3.20103 0.929209C3.75819 0.372041 4.76502 0.337751 5.4669 0.941673L8.5246 3.99937C9.37135 4.84613 9.00655 6.24612 7.96357 6.56704L7.96353 6.56691L7.95251 6.57058C6.75502 6.96969 5.89962 8.30891 6.31341 9.59371C6.62342 10.8677 7.56849 12.2267 8.67762 13.3218C9.79309 14.4231 11.1576 15.3396 12.3753 15.644L12.3752 15.6442L12.3881 15.647C13.6012 15.9166 14.9657 15.2537 15.3832 14.0013L15.3833 14.0013L15.3867 13.9902C15.7076 12.9472 17.1076 12.5824 17.9544 13.4292L21.0245 16.4993Z" stroke="#2B38F5"/>
</svg>
