<svg width="33" height="42" viewBox="0 0 33 42" fill="none" xmlns="http://www.w3.org/2000/svg">
<path d="M0 4.8975V41.2792C0 41.6656 0.313262 41.9789 0.699725 41.9789H27.2864C27.6726 41.9789 27.9858 41.6656 27.9858 41.2792V11.8942C27.9858 11.8786 27.9783 11.8654 27.9769 11.8501C27.9734 11.7887 27.9613 11.7282 27.9412 11.6702C27.9334 11.6478 27.9279 11.6262 27.9181 11.6043C27.8841 11.5282 27.8368 11.4587 27.778 11.3993L20.7817 4.40296C20.7223 4.34388 20.6526 4.29662 20.5759 4.2629C20.5549 4.25397 20.5335 4.24648 20.5116 4.23985C20.4531 4.21967 20.3923 4.20757 20.3304 4.20353C20.3185 4.20555 20.3047 4.19806 20.29 4.19806H0.699725C0.313262 4.19806 0 4.51103 0 4.8975ZM25.5973 11.1944H20.9894V6.58658L25.5973 11.1944ZM1.39916 5.59722H19.5903V11.8942C19.5903 12.2803 19.9035 12.5936 20.2897 12.5936H26.5867V40.5797H1.39916V5.59722Z" fill="#2B38F5"/>
<path d="M29.3848 36.3817V37.7808H31.4837C31.8701 37.7808 32.1834 37.4679 32.1834 37.0814V0.699725C32.1834 0.313263 31.8701 0 31.4837 0H4.89699C4.51053 0 4.19727 0.313263 4.19727 0.699725V2.79861H5.59672V1.39916H30.7839V36.3817H29.3848Z" fill="#2B38F5"/>
<path d="M5.5957 13.993H22.3871V15.3922H5.5957V13.993Z" fill="#2B38F5"/>
<path d="M5.5957 9.79498H11.1929V11.1944H5.5957V9.79498Z" fill="#2B38F5"/>
<path d="M5.5957 18.1909H16.7902V19.5903H5.5957V18.1909Z" fill="#2B38F5"/>
<path d="M18.1895 18.1909H22.3872V19.5903H18.1895V18.1909Z" fill="#2B38F5"/>
<path d="M5.5957 22.3886H22.3871V23.7881H5.5957V22.3886Z" fill="#2B38F5"/>
<path d="M5.5957 30.7844H22.3871V32.1839H5.5957V30.7844Z" fill="#2B38F5"/>
<path d="M11.8926 26.5867H22.3873V27.9858H11.8926V26.5867Z" fill="#2B38F5"/>
<path d="M5.5957 26.5867H10.4932V27.9858H5.5957V26.5867Z" fill="#2B38F5"/>
<path d="M5.5957 34.9825H8.39432V36.3817H5.5957V34.9825Z" fill="#2B38F5"/>
<path d="M9.79492 34.9825H22.3885V36.3817H9.79492V34.9825Z" fill="#2B38F5"/>
</svg>
