<svg width="45" height="50" viewBox="0 0 45 50" fill="none" xmlns="http://www.w3.org/2000/svg">
<path d="M22.0828 -6.10352e-05C19.6205 -6.10352e-05 17.5423 1.36051 14.4605 2.9485C11.3786 4.53648 7.242 6.45383 0.784191 7.87321L0 8.06142V8.84561C0 24.2236 5.39131 34.5004 10.7905 40.872C16.1896 47.2435 21.675 49.7804 21.675 49.7804L22.1142 49.9999L22.5533 49.7804C22.5533 49.7804 44.1656 38.6135 44.1656 8.84561V8.06142L43.3814 7.87321C36.9236 6.45383 32.787 4.53648 29.7051 2.9485C26.6233 1.36051 24.5452 -6.10352e-05 22.0828 -6.10352e-05ZM22.0828 2.00747C23.7335 2.00747 25.647 3.1171 28.7955 4.73645C31.7872 6.27347 35.9944 8.15944 42.0954 9.59843C41.7268 36.8177 23.3414 47.0279 22.0514 47.7101C21.428 47.4082 17.0836 45.236 12.2961 39.5859C7.24984 33.63 2.25455 24.0511 2.07026 9.59843C8.17127 8.15944 12.3785 6.27347 15.3701 4.73645C18.5187 3.1171 20.4321 2.00747 22.0828 2.00747ZM29.7992 14.68L29.266 15.5269L21.1104 28.1994L15.7152 23.3375L14.9937 22.6787L13.6449 24.153L14.3977 24.8431L20.6085 30.4893L21.4868 31.2735L22.1455 30.2697L30.9599 16.5934L31.4931 15.7465L29.7992 14.68Z" fill="#2B38F5"/>
</svg>
