<svg width="53" height="50" viewBox="0 0 53 50" fill="none" xmlns="http://www.w3.org/2000/svg">
<path d="M41.3043 -6.10352e-05C40.1112 -6.10352e-05 38.9733 0.191005 37.9076 0.543417L36.2092 1.0869L43.5802 8.45782L42.2554 11.8206L38.8927 13.1453L31.5217 5.7744L30.9783 7.47276C30.6258 8.53849 30.4348 9.6764 30.4348 10.8695C30.4348 15.3022 33.1394 19.0344 36.9565 20.72V44.5652C36.9565 47.5543 39.4022 49.9999 42.3913 49.9999C45.3804 49.9999 47.8261 47.5543 47.8261 44.5652V19.4972C50.4458 17.5144 52.1739 14.4021 52.1739 10.8695C52.1739 4.8785 47.2953 -6.10352e-05 41.3043 -6.10352e-05ZM41.3043 2.17385C46.1192 2.17385 50 6.05463 50 10.8695C50 13.8926 48.4587 16.5463 46.1277 18.1046L45.6522 18.4103V44.5652C45.6522 46.3782 44.2043 47.826 42.3913 47.826C40.5783 47.826 39.1304 46.3782 39.1304 44.5652V19.3274L38.4171 19.0556C35.0416 17.8625 32.6087 14.6654 32.6087 10.8695C32.6087 10.585 32.7191 10.3303 32.7446 10.0543L38.3832 15.6929L39.0285 15.4211L43.4783 13.6548L43.9198 13.485L44.0897 13.0434L45.856 8.59369L46.1277 7.94831L40.4891 2.30972C40.7651 2.28425 41.0199 2.17385 41.3043 2.17385ZM24.4565 13.0434C23.1403 13.0434 21.8792 13.5359 20.8899 14.4021L13.6209 20.754L2.47962 23.5393C1.03176 23.9002 0 25.208 0 26.6983V32.6086C0 34.3962 1.47334 35.8695 3.26087 35.8695H4.44973C4.95924 38.3406 7.16712 40.2173 9.78261 40.2173C12.3981 40.2173 14.606 38.3406 15.1155 35.8695H34.7826V33.6956H15.1155C14.606 31.2245 12.3981 29.3478 9.78261 29.3478C7.16712 29.3478 4.95924 31.2245 4.44973 33.6956H3.26087C2.64521 33.6956 2.17391 33.2243 2.17391 32.6086V26.6983C2.17391 26.193 2.50085 25.7684 2.98913 25.6453L14.4022 22.7921C14.5678 22.7496 14.7164 22.6689 14.8438 22.5543L22.3166 16.0325C22.911 15.5103 23.6668 15.2173 24.4565 15.2173H29.3478V13.0434H24.4565ZM9.78261 31.5217C11.5956 31.5217 13.0435 32.9695 13.0435 34.7825C13.0435 36.5956 11.5956 38.0434 9.78261 38.0434C7.9696 38.0434 6.52174 36.5956 6.52174 34.7825C6.52174 32.9695 7.9696 31.5217 9.78261 31.5217Z" fill="#2B38F5"/>
</svg>
