<svg width="49" height="50" viewBox="0 0 49 50" fill="none" xmlns="http://www.w3.org/2000/svg">
<path d="M43.0539 0.546163C42.1448 0.559799 33.7222 0.214362 32.4722 0.546174C28.8859 1.49161 8.25442 7.20062 8.25442 7.20062C8.21805 7.20971 8.18169 7.22334 8.14533 7.23698C4.8772 8.46878 2.81814 9.62785 1.56361 11.3096C0.318177 12.9823 0.0409082 14.9914 0.0363631 17.3823C0.0363631 17.3959 0.0363631 17.405 0.0363631 17.4186V18.1459C0.0227266 18.2913 0 18.4368 0 18.5823V43.4546C0 47.05 2.94995 49.9999 6.54535 49.9999H42.3266C45.922 49.9999 48.872 47.05 48.872 43.4546V18.4004C48.872 14.6914 45.5538 11.6005 41.8903 11.6005H6.98171C5.67718 11.6005 4.50448 11.9733 3.52722 12.5824C4.37266 11.5415 5.96809 10.5597 8.87259 9.45513C8.90441 9.44149 8.9135 9.4324 8.94532 9.41877C9.07713 9.3824 29.5859 3.71431 33.054 2.80069C34.2086 2.49614 35.0722 2.33706 35.6722 2.32796C36.2722 2.31887 36.554 2.40978 36.6903 2.50978C36.8267 2.60978 36.9403 2.80523 37.054 3.2734C37.1676 3.74158 37.2358 4.45521 37.2358 5.38246V9.27331H39.563V5.38246C39.563 4.37339 39.4994 3.51886 39.3085 2.72796C39.1176 1.93706 38.7449 1.1598 38.0721 0.655263C37.3994 0.150725 43.963 0.532526 43.0539 0.546163ZM6.98171 13.9278H41.8903C44.1584 13.9278 46.5447 16.1823 46.5447 18.4004V43.4546C46.5447 45.7909 44.6629 47.6727 42.3266 47.6727H6.54535C4.20448 47.6727 2.32724 45.7955 2.32724 43.4546V20.2913L2.3636 18.3641C2.43178 17.5732 2.83632 16.4459 3.59994 15.5641C4.43175 14.6005 5.5681 13.9278 6.98171 13.9278ZM40.1448 27.8912C38.5358 27.8912 37.2358 29.1912 37.2358 30.8002C37.2358 32.4093 38.5358 33.7093 40.1448 33.7093C41.7494 33.7093 43.0539 32.4093 43.0539 30.8002C43.0539 29.1912 41.7494 27.8912 40.1448 27.8912Z" fill="#2B38F5"/>
</svg>
