<svg width="32" height="32" viewBox="0 0 32 32" fill="none" xmlns="http://www.w3.org/2000/svg">
<path fill-rule="evenodd" clip-rule="evenodd" d="M27.2068 4.65039C24.2131 1.65313 20.2316 0.00175781 15.99 0C7.2498 0 0.136523 7.11309 0.133008 15.8557C0.131836 18.6504 0.861914 21.3785 2.24961 23.7832L0 32L8.40605 29.7949C10.7223 31.0584 13.3299 31.7242 15.9836 31.725H15.9902C24.7295 31.725 31.8436 24.6113 31.8469 15.8684C31.8486 11.6313 30.2008 7.64746 27.2068 4.65039ZM15.99 29.0471H15.9846C13.6197 29.0461 11.3004 28.4105 9.27656 27.21L8.79551 26.9242L3.80723 28.2328L5.13867 23.3693L4.82519 22.8707C3.50586 20.7723 2.80918 18.3469 2.81035 15.8566C2.81309 8.59004 8.72558 2.67813 15.9953 2.67813C19.5156 2.6793 22.8248 4.05195 25.3131 6.54316C27.8014 9.03438 29.1709 12.3457 29.1697 15.8674C29.1666 23.1346 23.2545 29.0471 15.99 29.0471ZM23.2193 19.1762C22.8232 18.9777 20.8752 18.0195 20.5119 17.8871C20.149 17.7549 19.8846 17.6891 19.6207 18.0855C19.3564 18.482 18.5973 19.3746 18.366 19.6389C18.1348 19.9033 17.9039 19.9365 17.5076 19.7381C17.1113 19.5398 15.8348 19.1213 14.3213 17.7715C13.1436 16.7209 12.3484 15.4234 12.1172 15.027C11.8863 14.6301 12.1152 14.4363 12.291 14.2184C12.7199 13.6857 13.1494 13.1273 13.2814 12.8631C13.4137 12.5986 13.3475 12.3672 13.2482 12.1689C13.1494 11.9707 12.357 10.0205 12.027 9.22695C11.7051 8.45469 11.3787 8.55898 11.1354 8.54688C10.9045 8.53535 10.6402 8.53301 10.376 8.53301C10.1119 8.53301 9.68262 8.63203 9.31933 9.02891C8.95625 9.42559 7.93281 10.384 7.93281 12.3342C7.93281 14.2844 9.35254 16.1684 9.55059 16.4328C9.74863 16.6973 12.3445 20.6992 16.3189 22.4152C17.2643 22.8238 18.0021 23.0674 18.5777 23.25C19.527 23.5516 20.3904 23.509 21.0732 23.407C21.8346 23.2932 23.4172 22.4484 23.7477 21.523C24.0777 20.5975 24.0777 19.8043 23.9785 19.6389C23.8797 19.4736 23.6154 19.3746 23.2193 19.1762Z" fill="#2B38F5"/>
</svg>
