<svg width="120" height="38" fill="none" xmlns="http://www.w3.org/2000/svg"><path d="M27.396 3l.928-.371-1-2.505-.874 2.552.946.324zm5.992 15l-.928.371.004.011.005.011.92-.393zm6.85 16l-.92.394 1.138 2.658.747-2.794-.966-.258zm4.28-16v-1h-.768l-.198.742.966.258zm75.189.707a1 1 0 000-1.414l-6.364-6.364a1 1 0 10-1.414 1.414L117.586 18l-5.657 5.657a1 1 0 101.414 1.414l6.364-6.364zM22.259 18v1h.715l.231-.676L22.26 18zm4.208-14.629l5.993 15 1.857-.742-5.993-15-1.857.742zm6.002 15.022l6.85 16 1.838-.787-6.85-16-1.838.787zm8.734 15.865l4.281-16-1.932-.516-4.28 16 1.931.516zM44.518 19H119v-2H44.518v2zM0 19h22.259v-2H0v2zm23.205-.676l5.137-15-1.892-.648-5.137 15 1.892.648z" fill="#fff"/></svg>