<svg width="32" height="40" fill="none" xmlns="http://www.w3.org/2000/svg"><path d="M26.906 39.375H4.594A4.599 4.599 0 010 34.781V4.594A4.599 4.599 0 014.594 0h22.312A4.599 4.599 0 0131.5 4.594V34.78a4.599 4.599 0 01-4.594 4.594zM4.594 1.312a3.285 3.285 0 00-3.282 3.282V34.78a3.285 3.285 0 003.282 3.282h22.312a3.285 3.285 0 003.282-3.282V4.594a3.285 3.285 0 00-3.282-3.282H4.594z" fill="#2B38F5"/><path d="M17.719 36.75H13.78a1.969 1.969 0 01-1.969-1.969v-2.625a1.969 1.969 0 011.97-1.968h3.937a1.969 1.969 0 011.968 1.968v2.625a1.969 1.969 0 01-1.968 1.969zM13.78 31.5a.656.656 0 00-.656.656v2.625a.656.656 0 00.656.657h3.938a.656.656 0 00.656-.657v-2.625a.656.656 0 00-.656-.656H13.78zm-5.249 5.25H4.594a1.969 1.969 0 01-1.969-1.969v-2.625a1.969 1.969 0 011.969-1.968H8.53a1.969 1.969 0 011.969 1.968v2.625A1.969 1.969 0 018.53 36.75zM4.594 31.5a.656.656 0 00-.657.656v2.625a.656.656 0 00.657.657H8.53a.656.656 0 00.656-.657v-2.625a.656.656 0 00-.656-.656H4.594zm22.312 5.25H22.97A1.969 1.969 0 0121 34.781v-10.5a1.969 1.969 0 011.969-1.968h3.937a1.969 1.969 0 011.969 1.968v10.5a1.969 1.969 0 01-1.969 1.969zM22.97 23.625a.656.656 0 00-.657.656v10.5a.656.656 0 00.657.657h3.937a.656.656 0 00.657-.657v-10.5a.656.656 0 00-.657-.656H22.97zm-5.251 5.25H13.78a1.969 1.969 0 01-1.969-1.969v-2.625a1.969 1.969 0 011.97-1.968h3.937a1.969 1.969 0 011.968 1.968v2.625a1.969 1.969 0 01-1.968 1.969zm-3.938-5.25a.656.656 0 00-.656.656v2.625a.656.656 0 00.656.657h3.938a.656.656 0 00.656-.657v-2.625a.656.656 0 00-.656-.656H13.78zm-5.25 5.25H4.594a1.969 1.969 0 01-1.969-1.969v-2.625a1.969 1.969 0 011.969-1.968H8.53a1.969 1.969 0 011.97 1.967v2.625a1.969 1.969 0 01-1.969 1.969zm-3.937-5.25a.656.656 0 00-.657.656v2.625a.656.656 0 00.657.657H8.53a.656.656 0 00.656-.657v-2.625a.656.656 0 00-.656-.656H4.594zM17.719 21H13.78a1.969 1.969 0 01-1.969-1.969v-2.625a1.969 1.969 0 011.97-1.968h3.937a1.969 1.969 0 011.968 1.968v2.625A1.969 1.969 0 0117.72 21zm-3.938-5.25a.656.656 0 00-.656.656v2.625a.656.656 0 00.656.657h3.938a.656.656 0 00.656-.657v-2.625a.656.656 0 00-.656-.656H13.78zM8.531 21H4.594a1.969 1.969 0 01-1.969-1.969v-2.625a1.969 1.969 0 011.969-1.968H8.53a1.969 1.969 0 011.969 1.968v2.625A1.969 1.969 0 018.531 21zm-3.937-5.25a.656.656 0 00-.657.656v2.625a.656.656 0 00.657.657H8.53a.656.656 0 00.656-.657v-2.625a.656.656 0 00-.656-.656H4.594zM26.906 21H22.97A1.969 1.969 0 0121 19.031v-2.625a1.969 1.969 0 011.969-1.968h3.937a1.969 1.969 0 011.969 1.968v2.625A1.969 1.969 0 0126.906 21zm-3.937-5.25a.656.656 0 00-.657.656v2.625a.656.656 0 00.657.657h3.937a.656.656 0 00.657-.657v-2.625a.656.656 0 00-.657-.656H22.97zm3.937-3.937H4.594a1.969 1.969 0 01-1.969-1.97v-5.25a1.969 1.969 0 011.969-1.968h22.312a1.969 1.969 0 011.969 1.969v5.25a1.969 1.969 0 01-1.969 1.969zM4.594 3.936a.656.656 0 00-.657.657v5.25a.656.656 0 00.657.656h22.312a.656.656 0 00.657-.656v-5.25a.656.656 0 00-.657-.657H4.594z" fill="#2B38F5"/></svg>