<svg width="97" height="114" fill="none" xmlns="http://www.w3.org/2000/svg"><path d="M11.717 95.879h.056l40.121-.2-.014-2.92-40.122.2a8.446 8.446 0 01-8.487-8.406l-.35-72.981a8.448 8.448 0 018.406-8.487l33.776-.16.066 13.712c.03 6.256 5.109 11.311 11.365 11.312h.056l13.713-.066.19 46.042 2.92-.012-.195-47.138-.002-.42a1.46 1.46 0 00-.433-1.03L47.635.468a1.46 1.46 0 00-.889-.414l-.522-.048C46.175.002 46.13.002 46.078 0L11.311.167C5.037.197-.028 5.31.002 11.587l.35 72.98c.037 6.254 5.113 11.305 11.366 11.312zm44.859-70.851a8.446 8.446 0 01-8.486-8.406l-.057-11.654L68.27 24.972l-11.695.056z" fill="#60C4FA"/><path d="M35.28 53.907a1.46 1.46 0 000 2.92h4.952a1.46 1.46 0 000-2.92H35.28zm23.482-10.923a1.46 1.46 0 00-1.46-1.46H16.189a1.46 1.46 0 000 2.92h41.113a1.46 1.46 0 001.46-1.46zM16.189 53.907a1.46 1.46 0 000 2.92h12.815a1.46 1.46 0 000-2.92H16.19zM45.16 114c.157 0 .313-.025.462-.075l17.309-5.769c.01-.004.019-.009.03-.012.038-.015.077-.03.115-.048.017-.008.033-.014.049-.023a1.761 1.761 0 00.147-.083 1.472 1.472 0 00.167-.131c.02-.018.042-.036.062-.056l32.309-32.31a1.46 1.46 0 000-2.065L84.27 61.89a1.46 1.46 0 00-2.064 0L49.897 94.2c-.008.007-.013.016-.02.024a1.322 1.322 0 00-.158.192l-.011.015a1.428 1.428 0 00-.142.284c-.008.022-.016.035-.023.053l-5.769 17.309a1.46 1.46 0 001.386 1.922V114zm38.078-49.012l9.475 9.475-4.283 4.28-9.474-9.474 4.282-4.281zm-6.346 6.346l9.474 9.474-23.898 23.897-4.736-4.737-4.738-4.737 23.898-23.897zM51.567 97.935l4.1 4.099 4.097 4.097-12.296 4.099 4.1-12.295z" fill="#60C4FA"/></svg>