<svg width="120" height="28" fill="none" xmlns="http://www.w3.org/2000/svg"><path d="M10.421 27.02L0 1.25h5.585l5.543 13.718-1.4.57L4.574 2.762H2.245l8.19 20.244 7.4-18.3 2.149-.111h27.633c3.507 0 6.348 2.582 6.348 5.748 0 3.166-2.841 5.749-6.348 5.749H46.51l-7.456-6.665V22.48H23.338l.097-8.054h6.984v-1.805h-9.66v11.65h20.498v-5.915h4.268l7.192 6.414 10.505-.124V5.304H75.75l.153 19.494 10.878-.014 2.772-7.345 5.668-.014 3.298 7.36 3.534.013h9.105c3.659 0 6.625-2.61 6.625-5.831 0-3.208-2.98-5.832-6.625-5.832h-3.811c-2.439 0-4.421-1.805-4.421-4.027 0-2.221 1.982-4.026 4.421-4.026h3.811c2.439 0 4.421 1.805 4.421 4.026V9.9l2.204-.306v-1c0-3.207-2.98-5.83-6.625-5.83h-3.811c-3.658 0-6.624 2.61-6.624 5.83 0 3.208 2.98 5.832 6.624 5.832h3.811c2.439 0 4.421 1.805 4.421 4.027 0 2.221-1.982 4.027-4.421 4.027l-10.407.125c-.666 0-.901-.709-1.067-1.25L92.657 4.013l-7.94 19.633H78.12V5.054h7.331l.07-2.263h-24.49l.084 20.397h-6.334l-6.236-5.235 1.427-.36c3.645-.931 6.195-3.903 6.195-7.249 0-4.165-3.839-7.54-8.55-7.54l-31.32-.027-1.386 3.43-1.4-.57 1.774-4.373 4.753.027H47.63c5.544 0 10.062 4.055 10.062 9.053 0 3.61-2.412 6.845-6.001 8.275l3.645 3.055h4.282l-.111-20.397h27.564l-.152 5.29h-7.29v15.58h4.075L92.67 0l8.454 20.883c.028.07.041.139.069.208l9.964-.111c1.622 0 2.924-1.125 2.924-2.513 0-1.389-1.302-2.513-2.91-2.513h-3.811c-4.49 0-8.135-3.291-8.135-7.332 0-4.04 3.645-7.33 8.135-7.33h3.811c4.49 0 8.135 3.29 8.135 7.33v2.32l-5.225.707V9.136c0-1.388-1.302-2.513-2.91-2.513h-3.811c-1.607 0-2.91 1.125-2.91 2.513 0 1.389 1.303 2.513 2.91 2.513h3.811c4.49 0 8.135 3.291 8.135 7.332 0 4.04-3.645 7.33-8.135 7.33h-9.133l-4.476-.013-3.298-7.36h-3.659l-2.771 7.346-13.415.014-.167-19.48h-9.52v19.355l-12.57.139-7.206-6.415h-2.19v5.915H19.263v-14.69H31.93v4.818h-7l-.069 5.026h12.68V6.096h-17.53l-1.15.055-8.44 20.869zm36.656-12.455h.54c2.675 0 4.837-1.902 4.837-4.235 0-2.332-2.176-4.235-4.837-4.235H37.584l9.493 8.47z" fill="#18183D"/></svg>