<svg width="40" height="40" fill="none" xmlns="http://www.w3.org/2000/svg"><path d="M38.892 6.898l-6.957-1.897-2.49-4.36a.657.657 0 00-.898-.242l-8.87 5.07-7.208-3.844h9.844a.656.656 0 100-1.312H9.843a1.024 1.024 0 00-.217.037.656.656 0 00-.385.36L7.397 5.013.484 6.898a.656.656 0 10.345 1.267L7.623 6.31l6.294 8.183a.657.657 0 00.52.256h.023a.656.656 0 00.525-.292l1.05-1.572-2.9 21.464a.656.656 0 00.247.606l5.906 4.594a.656.656 0 00.806 0L26 34.956a.656.656 0 00.247-.606l-2.903-21.464 1.05 1.572a.657.657 0 00.525.292h.019a.655.655 0 00.52-.256l6.294-8.183 6.794 1.854a.656.656 0 00.346-1.267zM14.4 12.968l-5.77-7.5 1.535-3.584 8.575 4.573-4.34 6.51zM19.688 38.2l-5.206-4.049 2.665-19.717 1.483.58c.72.28 1.515.298 2.247.05l1.373-.466 2.643 19.557-5.205 4.045zm2.384-24.927l-1.616.548a1.97 1.97 0 01-1.35-.03l-1.78-.695.364-2.702L19.688 7.4l1.995 2.992.389 2.88zm2.904-.305L20.624 6.44l8.006-4.576 2.083 3.645-5.737 7.459zm8.439 25.407a.656.656 0 01-.296-.07l-3.884-1.97a.656.656 0 01.59-1.17l3.591 1.82 3.334-1.643v-7.467a.656.656 0 111.313 0v7.875a.657.657 0 01-.366.59l-3.992 1.97a.656.656 0 01-.29.065z" fill="#2B38F5"/><path d="M38.719 26.563h-9.844a.656.656 0 110-1.313h9.188v-1.313h-10.5a.656.656 0 110-1.312h11.156a.656.656 0 01.656.656v2.625a.656.656 0 01-.656.657zM11.813 38.375H.656A.656.656 0 010 37.719v-26.25a.656.656 0 111.313 0v25.593h10.5a.656.656 0 110 1.313z" fill="#2B38F5"/></svg>