<svg width="50" height="50" fill="none" xmlns="http://www.w3.org/2000/svg"><path d="M25 0C11.206 0 0 11.206 0 25c-.005.45.23.87.62 1.099.39.224.87.224 1.26 0 .39-.23.625-.65.62-1.1C2.5 12.56 12.56 2.5 25 2.5c7.808 0 14.658 3.976 18.696 10H35c-.45-.004-.87.23-1.099.621-.224.39-.224.87 0 1.26.23.39.65.625 1.1.62h12.5V2.5a1.254 1.254 0 00-1.27-1.27A1.256 1.256 0 0045 2.5v7.515C40.434 3.935 33.173 0 25 0zm23.73 23.73A1.256 1.256 0 0047.5 25c0 12.441-10.059 22.5-22.5 22.5-7.808 0-14.663-3.975-18.696-10H15c.45.01.87-.23 1.099-.615a1.27 1.27 0 000-1.265A1.268 1.268 0 0015 35H4.307a1.34 1.34 0 00-.484 0H2.5v12.5c-.005.45.23.87.62 1.099.39.224.87.224 1.26 0 .39-.23.625-.65.62-1.1V39.98C9.56 46.06 16.826 50 25 50c13.794 0 25-11.206 25-25a1.254 1.254 0 00-1.27-1.27z" fill="#2B38F5"/></svg>