<svg width="22" height="22" fill="none" xmlns="http://www.w3.org/2000/svg"><path d="M21.024 16.5l.354-.354-.353.353c.557.558.591 1.564-.013 2.266l-2.07 2.071.353.354-.354-.354c-.429.429-1.06.662-1.903.664-.848.002-1.874-.233-3.022-.704-2.295-.942-4.983-2.79-7.526-5.333-2.54-2.541-4.36-5.228-5.29-7.523C.736 6.792.503 5.764.5 4.914c-.003-.846.219-1.479.623-1.906L3.2.929C3.758.372 4.765.338 5.467.942l3.058 3.057c.846.847.482 2.247-.561 2.568h0l-.011.004C6.755 6.97 5.9 8.309 6.313 9.594c.31 1.274 1.255 2.633 2.365 3.728 1.115 1.101 2.48 2.018 3.697 2.322h0l.013.003c1.213.27 2.578-.393 2.995-1.646h0l.004-.01c.32-1.044 1.72-1.409 2.567-.562l3.07 3.07z" stroke="#2B38F5"/></svg>