<svg width="33" height="42" fill="none" xmlns="http://www.w3.org/2000/svg"><path d="M0 4.897V41.28a.7.7 0 00.7.7h26.586a.7.7 0 00.7-.7V11.894c0-.015-.008-.029-.01-.044a.665.665 0 00-.035-.18c-.008-.022-.013-.044-.023-.066a.693.693 0 00-.14-.205l-6.996-6.996a.679.679 0 00-.27-.163.693.693 0 00-.182-.036c-.011.002-.025-.006-.04-.006H.7a.7.7 0 00-.7.7zm25.597 6.297H20.99V6.587l4.608 4.607zM1.4 5.597h18.19v6.297a.7.7 0 00.7.7h6.297V40.58H1.399V5.597z" fill="#2B38F5"/><path d="M29.385 36.382v1.399h2.099a.7.7 0 00.7-.7V.7a.7.7 0 00-.7-.7H4.897a.7.7 0 00-.7.7v2.099h1.4v-1.4h25.187v34.983h-1.4z" fill="#2B38F5"/><path d="M5.596 13.993h16.791v1.4H5.596v-1.4zm0-4.198h5.597v1.4H5.596v-1.4zm0 8.395H16.79v1.4H5.596v-1.4zm12.594 0h4.197v1.4H18.19v-1.4zM5.596 22.389h16.791v1.4H5.596v-1.4zm0 8.395h16.791v1.4H5.596v-1.4zm6.297-4.197h10.494v1.399H11.893v-1.4zm-6.297 0h4.897v1.399H5.596v-1.4zm0 8.396h2.798v1.399H5.596v-1.4zm4.199 0h12.594v1.399H9.795v-1.4z" fill="#2B38F5"/></svg>