<svg width="45" height="50" fill="none" xmlns="http://www.w3.org/2000/svg"><path d="M22.083 0c-2.462 0-4.54 1.36-7.622 2.949C11.378 4.535 7.241 6.454.784 7.873L0 8.061v.785C0 24.224 5.391 34.5 10.79 40.872c5.4 6.371 10.885 8.908 10.885 8.908l.44.22.438-.22S44.166 38.614 44.166 8.846V8.06l-.785-.188c-6.457-1.42-10.594-3.337-13.676-4.925C26.623 1.362 24.545 0 22.083 0zm0 2.007c1.65 0 3.564 1.11 6.713 2.73 2.991 1.536 7.198 3.422 13.3 4.861-.37 27.22-18.755 37.43-20.045 38.112-.623-.302-4.967-2.474-9.755-8.124C7.25 33.63 2.255 24.05 2.07 9.598c6.101-1.438 10.31-3.325 13.3-4.862 3.149-1.619 5.062-2.729 6.713-2.729zm7.716 12.673l-.533.847-8.156 12.672-5.395-4.862-.721-.658-1.35 1.474.754.69 6.21 5.646.879.784.659-1.003 8.814-13.677.533-.847L29.8 14.68z" fill="#2B38F5"/></svg>