<svg width="53" height="50" fill="none" xmlns="http://www.w3.org/2000/svg"><path d="M41.304 0c-1.193 0-2.33.191-3.396.543l-1.699.544 7.371 7.37-1.325 3.364-3.362 1.324-7.371-7.37-.544 1.698a10.78 10.78 0 00-.543 3.397c0 4.432 2.704 8.164 6.521 9.85v23.845c0 2.99 2.446 5.435 5.435 5.435 2.99 0 5.435-2.446 5.435-5.435V19.497c2.62-1.983 4.348-5.095 4.348-8.627C52.174 4.879 47.295 0 41.304 0zm0 2.174A8.68 8.68 0 0150 10.87a8.686 8.686 0 01-3.872 7.235l-.476.305v26.155a3.246 3.246 0 01-3.26 3.261 3.246 3.246 0 01-3.262-3.26v-25.24l-.713-.271c-3.375-1.194-5.808-4.39-5.808-8.187 0-.284.11-.539.136-.815l5.638 5.639.645-.272 4.45-1.766.442-.17.17-.442 1.766-4.45.272-.645-5.639-5.638c.276-.026.53-.136.815-.136zm-16.848 10.87a5.418 5.418 0 00-3.566 1.358l-7.27 6.352-11.14 2.785A3.272 3.272 0 000 26.7v5.91a3.278 3.278 0 003.26 3.26h1.19c.51 2.472 2.717 4.348 5.333 4.348 2.615 0 4.823-1.876 5.333-4.347h19.667v-2.174H15.115c-.509-2.471-2.717-4.348-5.332-4.348-2.616 0-4.824 1.877-5.333 4.348H3.26a1.068 1.068 0 01-1.086-1.087V26.7c0-.506.327-.93.815-1.054l11.413-2.853c.166-.042.314-.123.442-.238l7.473-6.521a3.24 3.24 0 012.14-.816h4.89v-2.174h-4.89zM9.783 31.521a3.246 3.246 0 013.26 3.26 3.246 3.246 0 01-3.26 3.261 3.245 3.245 0 01-3.261-3.26 3.245 3.245 0 013.26-3.261z" fill="#2B38F5"/></svg>