<svg width="49" height="50" fill="none" xmlns="http://www.w3.org/2000/svg"><path d="M43.054.546c-.91.014-9.332-.332-10.582 0-3.586.946-24.218 6.655-24.218 6.655a.991.991 0 00-.109.036c-3.268 1.232-5.327 2.39-6.581 4.073C.318 12.982.04 14.99.036 17.382v.764c-.013.145-.036.29-.036.436v24.873C0 47.05 2.95 50 6.545 50h35.782c3.595 0 6.545-2.95 6.545-6.545V18.4c0-3.709-3.318-6.8-6.982-6.8H6.982a6.486 6.486 0 00-3.455.982c.846-1.04 2.441-2.022 5.346-3.127.031-.014.04-.023.072-.036.132-.037 20.64-5.705 24.109-6.618 1.155-.305 2.018-.464 2.618-.473.6-.01.882.082 1.018.182.137.1.25.295.364.763.114.469.182 1.182.182 2.11v3.89h2.327v-3.89c0-1.01-.064-1.864-.255-2.655-.19-.79-.563-1.568-1.236-2.073C37.4.151 43.963.533 43.054.546zM6.982 13.928H41.89c2.268 0 4.655 2.254 4.655 4.472v25.055a4.21 4.21 0 01-4.218 4.218H6.545a4.204 4.204 0 01-4.218-4.218V20.29l.037-1.927c.068-.79.472-1.918 1.236-2.8.832-.963 1.968-1.636 3.382-1.636zM40.145 27.89a2.906 2.906 0 00-2.91 2.91c0 1.608 1.3 2.908 2.91 2.908a2.909 2.909 0 100-5.818z" fill="#2B38F5"/></svg>