<svg width="32" height="32" fill="none" xmlns="http://www.w3.org/2000/svg"><path fill-rule="evenodd" clip-rule="evenodd" d="M27.207 4.65A15.754 15.754 0 0015.99 0C7.25 0 .137 7.113.133 15.856a15.828 15.828 0 002.117 7.927L0 32l8.406-2.205a15.84 15.84 0 007.578 1.93h.006c8.74 0 15.854-7.114 15.857-15.857a15.76 15.76 0 00-4.64-11.218zM15.99 29.047h-.005a13.164 13.164 0 01-6.708-1.837l-.481-.286-4.989 1.309 1.332-4.864-.314-.498a13.147 13.147 0 01-2.015-7.014C2.813 8.59 8.726 2.678 15.995 2.678a13.09 13.09 0 019.318 3.865 13.101 13.101 0 013.857 9.324c-.003 7.268-5.916 13.18-13.18 13.18zm7.23-9.87c-.397-.2-2.345-1.157-2.708-1.29-.363-.132-.627-.198-.891.198-.265.397-1.024 1.29-1.255 1.554-.231.264-.462.297-.858.1-.397-.2-1.673-.618-3.187-1.968-1.177-1.05-1.973-2.348-2.204-2.744-.23-.397-.002-.59.174-.809.429-.532.858-1.09.99-1.355.133-.264.066-.496-.033-.694-.099-.198-.891-2.149-1.221-2.942-.322-.772-.648-.668-.892-.68a15.83 15.83 0 00-.759-.014c-.264 0-.693.099-1.057.496-.363.397-1.386 1.355-1.386 3.305 0 1.95 1.42 3.834 1.618 4.099.198.264 2.793 4.266 6.768 5.982.945.409 1.683.652 2.259.835.949.302 1.812.259 2.495.157.762-.114 2.344-.959 2.675-1.884.33-.925.33-1.719.23-1.884-.098-.165-.363-.264-.759-.463z" fill="#2B38F5"/></svg>